<?xml version="1.0" encoding="utf-8"?>
<!-- Generator: Adobe Illustrator 16.0.0, SVG Export Plug-In . SVG Version: 6.00 Build 0)  -->
<!DOCTYPE svg PUBLIC "-//W3C//DTD SVG 1.1//EN" "http://www.w3.org/Graphics/SVG/1.1/DTD/svg11.dtd">
<svg version="1.1" id="Calque_1" xmlns="http://www.w3.org/2000/svg" xmlns:xlink="http://www.w3.org/1999/xlink" x="0px" y="0px"
	 width="841.89px" height="595.28px" viewBox="0 0 841.89 595.28" enable-background="new 0 0 841.89 595.28" xml:space="preserve">
<path fill-rule="evenodd" clip-rule="evenodd" d="M149.352,278.28c0-34.267,0-68.362,0-102.716c13.481,0,26.892,0,40.391,0
	c0.063-0.586,0.168-0.934,0.127-1.264c-1.143-9.167,5.797-17.368,16.141-17.394c11.441-0.028,22.885-0.099,34.325,0.026
	c8.019,0.088,13.804,4.393,15.724,11.615c0.558,2.102,0.426,4.387,0.634,6.868c13.262,0,26.668,0,40.227,0
	c0,34.41,0,68.552,0,102.865C247.806,278.28,198.703,278.28,149.352,278.28z M259.955,227.027
	c0.024-20.217-16.406-36.958-36.7-36.893c-20.599,0.066-36.743,16.415-36.851,36.729c-0.107,20.204,16.525,36.872,36.686,36.916
	C243.256,263.825,259.932,247.2,259.955,227.027z M176.995,194.326c0.026-4.382-3.5-7.976-7.892-8.045
	c-4.511-0.071-8.121,3.459-8.144,7.963c-0.023,4.458,3.601,8.083,8.064,8.07C173.348,202.302,176.969,198.673,176.995,194.326z"/>
<path fill-rule="evenodd" clip-rule="evenodd" fill="#FFFFFF" d="M259.955,227.027c-0.023,20.173-16.699,36.797-36.866,36.752
	c-20.161-0.044-36.793-16.712-36.686-36.916c0.108-20.315,16.252-36.664,36.851-36.729
	C243.549,190.069,259.979,206.81,259.955,227.027z M223.167,253.607c14.606-0.009,26.69-12.053,26.684-26.593
	c-0.006-14.718-12.164-26.857-26.785-26.744c-14.652,0.114-26.606,12.141-26.578,26.739
	C196.518,241.591,208.58,253.617,223.167,253.607z"/>
<path fill-rule="evenodd" clip-rule="evenodd" fill="#FFFFFF" d="M176.995,194.326c-0.025,4.347-3.646,7.976-7.971,7.989
	c-4.464,0.012-8.087-3.613-8.064-8.07c0.022-4.504,3.633-8.035,8.144-7.963C173.495,186.351,177.021,189.944,176.995,194.326z"/>
<path fill-rule="evenodd" clip-rule="evenodd" d="M223.167,253.607c-14.587,0.01-26.65-12.016-26.679-26.598
	c-0.028-14.598,11.926-26.625,26.578-26.739c14.621-0.114,26.779,12.026,26.785,26.744
	C249.857,241.554,237.773,253.598,223.167,253.607z"/>
</svg>
