<?xml version="1.0" encoding="utf-8"?>
<!-- Generator: Adobe Illustrator 16.0.0, SVG Export Plug-In . SVG Version: 6.00 Build 0)  -->
<!DOCTYPE svg PUBLIC "-//W3C//DTD SVG 1.1//EN" "http://www.w3.org/Graphics/SVG/1.1/DTD/svg11.dtd">
<svg version="1.1" id="Calque_1" xmlns="http://www.w3.org/2000/svg" xmlns:xlink="http://www.w3.org/1999/xlink" x="0px" y="0px"
	 width="841.89px" height="595.28px" viewBox="0 0 841.89 595.28" enable-background="new 0 0 841.89 595.28" xml:space="preserve">
<path fill-rule="evenodd" clip-rule="evenodd" d="M463.168,327.379c-9.171,6.05-17.9,11.809-27.072,17.86
	c-16.758-25.42-33.412-50.682-50.446-76.521c8.965-5.96,17.746-11.797,26.95-17.916C429.466,276.343,446.137,301.59,463.168,327.379
	z M451.645,322.049c-1.041-1.807-1.867-3.42-2.855-4.929c-11.204-17.115-22.434-34.214-33.656-51.316
	c-0.274-0.417-0.463-1.064-0.843-1.208c-1.745-0.663-3.544-1.184-5.324-1.756c0.016,1.764-0.659,3.974,0.15,5.224
	c11.836,18.29,23.869,36.453,35.867,54.638c0.455,0.688,0.925,1.589,1.6,1.855c0.969,0.383,2.326,0.67,3.158,0.263
	C450.577,324.41,450.971,323.1,451.645,322.049z"/>
<path fill-rule="evenodd" clip-rule="evenodd" d="M407.843,243.597c-9.164,6.031-17.873,11.764-26.941,17.732
	c-2.626-3.926-5.258-7.52-7.513-11.336c-1.877-3.176-1.083-6.208,1.934-8.294c5.465-3.779,10.982-7.495,16.627-10.995
	c3.339-2.07,6.471-1.165,8.711,1.996C403.052,236.074,405.225,239.602,407.843,243.597z"/>
<path fill-rule="evenodd" clip-rule="evenodd" d="M412.179,366.189c-9.5,0-19.004,0.157-28.495-0.139
	c-1.797-0.057-4.883-1.734-5.046-2.971c-0.435-3.298,2.674-3.093,4.97-3.097c19-0.031,38.001-0.1,56.998,0.117
	c1.769,0.021,4.847,1.757,5.016,3.007c0.444,3.3-2.599,3.078-4.942,3.079C431.18,366.193,421.68,366.189,412.179,366.189z"/>
<path fill-rule="evenodd" clip-rule="evenodd" d="M464.813,338.485c1.326,8.958,2.539,17.155,3.753,25.353
	c-0.424,0.283-0.848,0.566-1.271,0.85c-7.051-4.329-14.103-8.659-21.774-13.371C452.195,346.876,458.188,342.891,464.813,338.485z"
	/>
</svg>
