<?xml version="1.0" encoding="utf-8"?>
<!-- Generator: Adobe Illustrator 16.0.0, SVG Export Plug-In . SVG Version: 6.00 Build 0)  -->
<!DOCTYPE svg PUBLIC "-//W3C//DTD SVG 1.1//EN" "http://www.w3.org/Graphics/SVG/1.1/DTD/svg11.dtd">
<svg version="1.1" id="Calque_1" xmlns="http://www.w3.org/2000/svg" xmlns:xlink="http://www.w3.org/1999/xlink" x="0px" y="0px"
	 width="841.89px" height="595.28px" viewBox="0 0 841.89 595.28" enable-background="new 0 0 841.89 595.28" xml:space="preserve">
<path fill-rule="evenodd" clip-rule="evenodd" d="M496.281,269.52c1.912-2.316,2.883-4.204,4.424-5.241
	c9.152-6.162,16.883-13.54,21.314-23.866c0.741-1.727,1.08-3.625,1.831-6.229c-2.147,0.81-3.358,1.251-4.559,1.72
	c-7.122,2.782-14.015,0.822-18.622-5.303c-7.417-9.861-5.277-24.409,4.642-31.558c10.624-7.656,24.233-5.25,31.421,5.716
	c6.09,9.293,6.291,19.523,3.646,29.823C535.726,252.696,515.279,269.335,496.281,269.52z"/>
<path fill-rule="evenodd" clip-rule="evenodd" d="M467.27,234.548c-1.629,0.263-2.3,0.218-2.816,0.478
	c-6.209,3.124-12.256,3.189-17.715-1.435c-6.26-5.302-8.282-12.381-7.014-20.249c1.633-10.124,8.609-16.657,19.017-18.442
	c9.024-1.548,17.601,2.706,22.185,11.791c6.541,12.959,5.221,25.927-1.971,38.115c-8.416,14.264-21.062,22.658-37.446,25.121
	c-0.432-0.359-0.862-0.718-1.294-1.077c1.143-1.509,1.991-3.451,3.476-4.454c8.259-5.58,15.464-12.119,20.077-21.102
	C465.084,240.731,465.934,237.929,467.27,234.548z"/>
</svg>
