<?xml version="1.0" encoding="utf-8"?>
<!-- Generator: Adobe Illustrator 16.0.0, SVG Export Plug-In . SVG Version: 6.00 Build 0)  -->
<!DOCTYPE svg PUBLIC "-//W3C//DTD SVG 1.1//EN" "http://www.w3.org/Graphics/SVG/1.1/DTD/svg11.dtd">
<svg version="1.1" id="Calque_1" xmlns="http://www.w3.org/2000/svg" xmlns:xlink="http://www.w3.org/1999/xlink" x="0px" y="0px"
	 width="841.89px" height="595.28px" viewBox="0 0 841.89 595.28" enable-background="new 0 0 841.89 595.28" xml:space="preserve">
<g>
	<path fill="#FFFFFF" d="M329.631,402.174c0.059,0.115,0.118,0.238,0.169,0.385c-0.213-0.102-0.411-0.205-0.587-0.334
		c0.014-0.109,0.034-0.238,0.059-0.363C329.43,401.955,329.566,402.064,329.631,402.174z"/>
	<g>
		<path fill="#FFFFFF" d="M398.317,301.887c-7.319-6.396-17.265-14.12-29.486-16.874c-2.188-0.488-3.955-0.816-5.583-1.023
			c-6.783-0.853-12.099,0.349-17.242,3.908c-0.966,0.669-1.938,1.287-2.909,1.904c-3.519,2.233-7.159,4.542-9.949,9.075
			c-1.438,2.32-3.482,4.562-5.91,6.466c-13.448,10.547-25.814,23.654-37.778,36.334l-2.089,2.201
			c-0.993,1.021-2.021,2.072-2.736,3.453c-2.039,3.938-2.697,7.107-1.964,9.402c0.669,2.111,2.459,3.375,5.314,3.756
			c0.005,0.002,0.005,0.002,0.005,0.002c1.461,0.188,2.879,0.18,4.323-0.002c8.965-1.133,17.02-6.326,23.704-11.26
			c3.336-2.457,6.552-5.365,9.659-8.166c0.368-0.328,0.735-0.666,1.11-0.996c-3.051,4.984-6.823,8.934-10.781,13.057
			c-0.732,0.76-1.473,1.537-2.208,2.318c-4.535,4.809-9.582,7.023-15.876,6.969c-3.373-0.037-6.812,0.232-10.137,0.488
			c-1.414,0.117-2.83,0.225-4.246,0.316c-0.098-0.037-0.208-0.037-0.315-0.008l-5.857-0.678c-0.025-0.016-0.05-0.025-0.08-0.027
			l-0.678-0.412c-0.285-0.164-0.63-0.059-0.85,0.279c-0.212,0.334-0.247,0.799-0.075,1.133c0.112,0.273,0.256,0.631,0.576,0.773
			c0.05,0.025,0.23,0.068,0.283,0.082c0.076,0.008,0.148,0.008,0.226,0.004c0.765,1.117,1.647,1.721,2.695,1.852
			c1.245,0.162,2.53-0.404,3.674-1.018c0.55,0.818,0.674,1.383,0.589,1.625c-0.098,0.299-0.683,0.77-1.907,0.838
			c-4.864,0.287-9.292-2.16-13.592-7.57c-0.639-0.793-0.952-1.734-0.932-2.793c0.032-1.32,0.596-2.771,1.585-4.074
			c2.274-2.955,4.064-5.156,5.823-7.139c0.527-0.594,1.048-1.205,1.571-1.813c1.777-2.076,3.617-4.227,5.62-5.717
			c9.208-6.807,18.047-13.789,25.054-24.176c5.528-8.207,12.604-14.588,21.012-18.948c2.256-1.172,4.523-2.322,6.784-3.474
			c4.613-2.356,9.375-4.772,14.031-7.327c2.217-1.213,4.389-2.991,6.259-5.124c1.279-1.46,1.907-3.102,1.772-4.618
			c-0.135-1.482-0.993-2.696-2.412-3.428c-1.811-0.937-4.186-1.25-7.021-0.936c-3.597,0.398-5.646-0.144-6.522-2.939
			c-1.137-3.632,0.66-6.56,2.941-9.737c2.206-3.072,3.812-3.711,6.088-2.573c1.298,0.643,2.816,0.927,5.052,0.878
			c1.425-0.022,2.772,1.03,4.102,2.033c1.237,0.944,2.51,1.902,3.85,2.076c1.151,0.147,2.211-0.296,3.225-1.336
			c2.24-2.282,3.67-5.889,5.052-9.386c0.582-1.47,1.186-2.987,1.827-4.352c0.203-0.432,0.376-0.869,0.555-1.322
			c0.155-0.4,0.315-0.804,0.498-1.196c6.666-14.149,13.553-26.339,21.082-37.272c4.51-6.564,9.171-13.831,12.672-22.443
			c0.24-0.589,0.479-1.192,0.72-1.804c1.701-4.282,3.44-8.693,6.433-11.615l-0.681,1.958c-1.365,3.9-2.731,7.799-4.049,11.717
			c-0.396,1.197-0.889,2.401-1.365,3.573c-1.467,3.629-2.982,7.378-2.513,11.925c0.044,0.465-0.203,1.321-0.553,1.866
			c-2.603,4.202-4.092,9.057-5.533,13.746c-0.952,3.098-1.93,6.302-3.217,9.214c-0.564,1.268-1.512,2.313-2.513,3.418
			c-0.829,0.907-1.681,1.853-2.365,2.979c-6.043,9.98-12.953,18.74-19.527,26.72c-1.776,2.154-2.556,4.222-2.322,6.145
			c0.265,2.144,1.781,3.819,4.482,4.999c1.215,0.535,2.437,0.872,3.622,1.024c4.914,0.62,9.125-1.96,13.941-6.021
			c11.012-9.324,20.201-22.196,29.78-41.736c1.188-2.421,1.878-5.217,2.544-7.918c0.307-1.238,0.607-2.472,0.959-3.666
			c1.569-5.386,0.594-10.363-2.633-13.313c-2.104-1.933-1.909-3.818-1.381-6.985c0.2-1.24,0.422-2.48,0.635-3.72
			c0.63-3.567,1.273-7.247,1.637-10.91c0.258-2.596-0.128-5.48-1-7.521c-0.352-0.789-0.438-1.206-0.468-1.396
			c0.228-0.074,0.696-0.1,1.043-0.126l0.313-0.015c0.584-0.038,1.07-0.542,1.495-0.979c0.146-0.152,0.29-0.299,0.438-0.413
			c0.222-0.198,0.358-0.516,0.356-0.856c0.005-0.329-0.135-0.631-0.36-0.772c-0.165-0.102-0.338-0.247-0.5-0.394
			c-0.515-0.421-1.112-0.858-1.692-0.717c-0.534,0.123-1.063,0.289-1.587,0.479c1.897-1.763,3.101-2.114,3.829-2.026
			c0.568,0.07,1.037,0.42,1.432,1.077c1.711,2.827,3.736,6.559,4.303,10.479c0.749,5.211,0.488,10.913,0.157,16.308
			c-0.918,15.042-5.523,29.48-14.078,44.118c-1.508,2.581-2.878,5.255-4.339,8.082c-0.66,1.311-1.353,2.64-2.067,4.001
			c-0.183,0.341-0.183,0.786-0.002,1.097c0.174,0.304,0.491,0.412,0.781,0.266c1.34-0.688,2.604-1.35,3.818-1.98
			c2.576-1.349,5.01-2.621,7.417-3.745c1.288-0.606,2.631-1.114,3.935-1.606c2.008-0.763,4.083-1.554,6.047-2.705
			c3.636-2.149,7.28-4.49,10.809-6.754c3.457-2.213,7.031-4.516,10.592-6.623c0.842-0.496,1.79-0.697,2.737-0.577
			c2.552,0.327,5.081,2.999,4.78,6.455c-0.343,3.989-0.854,8.139-2.233,11.405l-0.713,1.682
			c-4.078,9.692-8.301,19.729-15.465,26.841c-9.403,9.341-19.828,18.251-32.317,20.163c-4.001,0.619-8.063,1.08-12.361,1.569
			c-2.114,0.246-4.312,0.498-6.62,0.778c-0.329,0.039-0.609,0.379-0.676,0.809c-0.064,0.432,0.103,0.848,0.404,0.998
			c0.623,0.309,1.123,0.584,1.534,0.813c0.749,0.414,1.281,0.718,1.877,0.822c7.534,1.411,13.325,6.719,17.696,16.223l0.922,0.377
			c6.531,6.51,8.309,6.576,13.894,15.424c2.392,3.793,4.78,7.582,7.123,11.42c0.519,0.84,1.051,1.664,1.582,2.494
			c1.48,2.311,3.024,4.693,4.084,7.318c2.068,5.152,3.59,10.979,1.032,18.766c-0.425-0.85-0.836-1.652-1.231-2.434
			c-1.215-2.375-2.261-4.432-3.16-6.604c-1.725-4.154-3.407-8.439-5.035-12.578C432.419,343.99,410.564,312.59,398.317,301.887z
			 M387.997,282.126c0.725,1.791,2.218,2.958,4.111,3.191c0.176,0.026,0.365,0.048,0.557,0.044c0.29,0.009,0.594,0.028,0.897,0.052
			c1.438,0.086,3.064,0.19,4.337-0.734c4.916-3.571,10.273-4.615,15.455-5.612c1.592-0.313,3.184-0.615,4.773-0.998
			c0.828-0.188,1.685-0.399,2.352-1.07c0.645-0.663,1.172-1.465,1.681-2.242c0.21-0.306,0.411-0.622,0.626-0.925
			c0.183-0.259,0.247-0.614,0.178-0.932c-0.07-0.32-0.275-0.548-0.524-0.603l-0.718-0.146c-0.603-0.135-1.208-0.265-1.815-0.304
			c-0.335-0.029-0.632,0.092-0.891,0.188c-0.142,0.058-0.317,0.122-0.39,0.114c-0.064-0.041-0.211-0.222-0.25-0.315
			c0.019-0.126,0.133-0.542,0.22-0.653l0.365-0.237c0.852-0.587,1.72-1.188,2.491-1.242c7.518-0.495,13.147-6.43,18.592-12.17
			c0.635-0.67,1.263-1.332,1.891-1.984c3.745-3.863,6.771-9.053,9.703-14.066c1.06-1.813,2.119-3.63,3.213-5.388
			c0.605-0.962,0.975-2.098,1.341-3.195c0.314-0.956,0.618-1.852,1.032-2.594c0.481-0.825,0.703-0.902,0.703-0.912
			c0.094,0.087,0.343,0.71,0.473,1.039c0.075,0.188,0.157,0.376,0.237,0.549l-0.749,1.989c-0.029,0.088-0.055,0.169-0.068,0.256
			l-0.313,0.809c-0.162,0.398-0.101,0.873,0.157,1.14c0.261,0.265,0.637,0.236,0.891-0.062c0.189-0.173,0.404-0.379,0.514-0.754
			c0.082-0.253,0.107-0.492,0.121-0.693l0.913-2.368c0.048-0.137,0.08-0.287,0.082-0.43l1.145-3.674
			c0.073-0.237,0.075-0.496,0.002-0.724c-0.075-0.225-0.217-0.396-0.396-0.465c-0.428-0.184-0.863-0.423-1.3-0.666
			c-1.107-0.624-2.35-1.23-3.423-1c-0.904,0.204-1.704,1.097-2.479,1.953c-0.502,0.562-1.191,1.331-1.5,1.286l-0.386-0.054
			c-4.638-0.585-8.2,2.511-11.645,5.505c-2.055,1.782-3.994,3.467-6.154,4.435c-6.188,2.785-12.116,6.921-17.671,10.91
			c-8.741,6.309-15.832,11.89-22.313,17.579c-2.143,1.88-4.12,5.273-5.876,10.074C387.379,278.242,387.314,280.405,387.997,282.126z
			"/>
	</g>
	<path fill="#FFFFFF" d="M326.395,395.195c0.306,0.164,0.582,0.266,0.836,0.303c1.64,0.199,1.943-1.938,2.112-3.088
		c0.053-0.416,0.116-0.848,0.201-1.117c0.5-1.49,0.993-2.984,1.495-4.477c1.8-5.387,3.661-10.945,5.234-16.545
		c0.635-2.26,0.82-4.68,0.986-7.031c0.075-1.039,0.148-2.08,0.272-3.104c0.024-0.252-0.025-0.502-0.131-0.678l-0.297-1.24
		c-0.007-0.072-0.021-0.139-0.032-0.219c-0.565-2.143-0.255-3.85,0.994-5.354l1.315-0.676c0.256-0.131,0.445-0.445,0.481-0.805
		l0.302-0.777c0.15-0.404,0.08-0.881-0.183-1.131c-0.254-0.256-0.626-0.223-0.891,0.078c-0.176,0.17-0.394,0.389-0.507,0.768
		c-0.032,0.111-0.056,0.219-0.069,0.32l-0.114,0.059c3.18-21.566,13.855-37.113,24.924-50.693c0.022,0.002,0.268-0.072,0.564-0.037
		c0.205,0.027,0.308,0.086,0.331,0.111c0.107,0.17,0.157,0.994,0.06,1.242c-0.725,1.688-1.528,3.357-2.303,4.988
		c-1.249,2.639-2.548,5.352-3.587,8.193c-2.271,6.203-4.477,12.555-6.606,18.703c-2.105,6.045-4.271,12.293-6.495,18.385
		c-2.941,8.064-6.065,16.189-9.084,24.049c-1.471,3.832-2.941,7.65-4.394,11.49c-1.663,4.391-2.037,7.818-1.105,10.195
		c0.927,2.365,3.058,3.508,6.287,3.334c1.742-0.086,3.484-1.594,4.156-2.238c1.852-1.771,3.665-3.674,5.43-5.512
		c1.433-1.498,2.873-2.996,4.339-4.451c5.927-5.881,9.991-12.525,12.414-20.309c0.42-1.367,0.82-2.754,1.24-4.137
		c1.297-4.408,2.646-8.957,4.533-12.951c1.744-3.674,2.189-6.412,1.628-10.109c-0.078-0.512-0.167-1.033-0.251-1.553
		c-0.667-4.148-1.305-8.066,0.662-12.035c4.711-9.518,4.882-19.383,3.704-31.277c-0.046-0.47,0.101-1.091,0.263-1.749
		c0.452,0.288,0.877,0.562,1.176,0.943c2.809,3.556,3.309,6.561,1.725,10.366c-0.332,0.799-1.398,4.055-0.51,5.352
		c1.653,2.424,1.23,5.002,0.747,7.996c-0.199,1.213-0.396,2.469-0.448,3.715c-0.055,1.453-0.239,2.982-0.42,4.477
		c-0.352,2.928-0.712,5.959-0.148,8.641c1.06,5.02,0.361,9.049-2.397,13.895c-1.044,1.818-1.859,3.842-2.654,5.799
		c-0.454,1.117-0.911,2.238-1.401,3.316c-2.861,6.258-5.76,12.486-8.66,18.707c-0.358,0.756-0.746,1.49-1.139,2.215
		c-0.727,1.375-1.491,2.787-1.999,4.354c-1.418,4.389-3.749,8.02-7.122,11.07c-0.479,0.439-0.986,0.842-1.496,1.252
		c-1.464,1.162-2.964,2.369-3.848,4.18c-1.938,3.953-4.8,5.225-7.831,6.559c-0.497,0.225-0.995,0.443-1.486,0.67
		c-1.582,0.754-3.064,1.037-4.412,0.869c-4.727-0.594-6.755-6.572-7.047-11.506c-0.019-0.352,0.273-0.99,0.541-1.547
		C326.316,395.359,326.355,395.283,326.395,395.195z M328.13,403.604c0.568,0.527,1.233,0.787,1.889,1.02
		c0.153,0.059,0.306,0.113,0.452,0.178c0.046,0.109,0.096,0.221,0.14,0.328c0.23,0.559,0.468,1.129,0.836,1.602
		c0.27,0.35,0.635,0.436,0.888,0.465c0.101,0.021,0.203,0.025,0.304,0.025l0.244,0.021l0.112-0.854l-0.029,0.865
		c0.237,0.045,0.481-0.061,0.655-0.307c0.178-0.234,0.251-0.57,0.191-0.881c-0.025-0.16-0.039-0.352-0.053-0.535
		c-0.057-0.631-0.121-1.416-0.591-1.799c-0.473-0.375-1.037-0.453-1.535-0.523c-0.05-0.002-0.094-0.012-0.146-0.021
		c-0.019-0.078-0.034-0.154-0.058-0.234c-0.146-0.674-0.313-1.369-0.65-1.961c-0.311-0.549-0.781-0.809-1.197-1.045
		c-0.144-0.072-0.29-0.154-0.422-0.252c-0.199-0.141-0.443-0.133-0.66,0.014c-0.212,0.154-0.36,0.424-0.399,0.738
		c-0.025,0.221-0.078,0.492-0.135,0.762C327.783,402.193,327.601,403.125,328.13,403.604z"/>
</g>
<g>
	<polygon fill="#FFFFFF" points="291.188,372.25 291.03,372.463 291.537,371.936 	"/>
	<path fill="#FFFFFF" d="M292.467,371.195c0.082-0.105,0.217-0.275,0.301-0.379l-1.478,1.479
		C290.59,373.244,292.937,370.563,292.467,371.195z"/>
	<path fill="#FFFFFF" d="M292.369,371.387c-0.26,0.41,0.391-0.32,0.617-0.563C292.478,371.389,293.04,370.572,292.369,371.387z"/>
	<path fill="#FFFFFF" d="M297.237,374.602c-0.009,0-0.032,0.02-0.055,0.037C297.171,374.67,297.196,374.65,297.237,374.602z"/>
	<path fill="#FFFFFF" d="M300.409,372.879l0.479-0.617c-1.048,0.943-0.443-0.377-1.034-0.07l0.18-0.209
		c-0.391-0.691-1.715-0.08-2.665-0.07c0.06-0.064,0.208-0.229,0.272-0.301c-0.197,0.191-0.535,0.559-0.525,0.48
		c0.098-0.141,0.233-0.275,0.292-0.33c0.676-1.105-0.868,0.357-0.327-0.48c-0.119,0.08-0.471,0.488-0.704,0.822
		c-0.665-0.1-1.306-0.295-2.416,0.117c0.089-0.154,0.306-0.428,0.594-0.768c-1.726,1.299-1.626,0.316-1.818-0.264
		c-0.37,0.408-0.333,0.479-0.742,0.883c-0.308,0.629,1.11-0.836,0.589,0.021l-0.356,0.395c-0.13,0.33,0.875-1.01,0.527-0.414
		c-0.247,0.367-0.441,0.51-0.45,0.555c0.326-0.02,0.219,0.502,1.215-0.352c-0.688,0.922,0.176,0.188-0.455,1.092
		c0.338-0.311,0.313-0.184,0.813-0.758c0.271,0.986,1.637,0.643,2.247,1.232c1.678-1.512,0.42,0.877,1.247,0.578
		c-0.048,0.061-0.098,0.127-0.137,0.18c0.455-0.342,0.786-0.41,0.763-0.08l0.688-0.654c-0.295,2.211,1.37,1.861,1.843,3.102
		c0.724,1.152,0.776,3.119,3.437,1.373c-0.121,0.18-0.18,0.283-0.256,0.344c0.544-0.178,0.37,0.672,0.904,0.471l-0.121,0.182
		c1.688-1.078,1.309,1.174,3.026-0.059c0.674,0.74,1.771,1.043,2.93,1.072l-0.226,0.383c1.174-0.404,0.691,2.006,1.756,1.801
		c0.251,1.299,2.718-1.365,2.802,0.225c-0.553,2.166,2.188-1.59,1.585,0.611c-0.637,3.439,1.271,1.938,3.044,0.525
		c0.319,1.484,2.45-0.934,2.222,1.682c1.028-1.262,0.003,2.16,0.626,1.949l0.203-0.508c-0.509,1.59,1.274-1.965,0.384,0.338
		l-0.062,0.094c-0.418,1.191,1.363-2.611,0.819-1.225l0.259-0.561c0.166-0.117-0.268,0.648-0.29,0.912
		c0.059-0.061,0.456-1.029,0.374-0.676c-0.986,2.328,0.457-0.391-0.657,2.221c-0.055-0.025-0.348,1.053-0.704,1.541
		c-0.079,0.283,0.145,0.234,0.604-0.881c0.516-1.172,1.019-2.166,1.306-3.123l-0.386,0.85c0.338-0.873,0.169-0.439,0.42-1.09
		c-0.079-0.176,0.438-1.428,0.569-1.984c-0.01,0.021-0.021,0.045-0.039,0.092c-0.505,0.994-0.329,0.346-0.313,0.178l0.185-0.486
		c0.404-1.012-0.988,1.879-0.208,0.188c-0.44,0.303-0.729,0.141-1.025,0.023c-0.328,0.629-0.196-0.164-0.688,1.113
		c0.56-1.455,0.508-1.914,0.404-1.896c0.062-0.129,0.135-0.279,0.124-0.221c0.676-1.914-0.953,1.611-0.078-0.701
		c-0.744,1.574-0.029-0.627-0.964,1.195c0.145-0.361,0.283-0.682,0.421-0.961c-0.245-0.156-0.266-0.861-0.448-1.035
		c-0.836,1.297-0.152-0.836-1.217,0.994c0.055-0.469,0.222-1.363-0.331-0.688l0.13-0.223c-0.263,0.012-0.571-0.012-1.299,1.111
		c0.824-1.844,0.557-1.525,0.751-2.146c-0.553,0.771-0.713,0.393-1.309,1.053c0.384-0.848-0.354,0.271,0.242-0.945
		c-1.772,2.051-2.145,0.893-1.822-1.227l0.055-0.076c-0.418,0.643-1.293,1.998-1.818,2.811c0.046-0.107,0.153-0.307,0.167-0.291
		c-0.232,0.156,0.285-1.076,0.055-0.922c0.107-0.199,0.107-0.199,0.227-0.377c-0.391,0.471,0.292-1.08-0.329-0.227l0.162-0.318
		l-0.317,0.396c0.215-0.393,0.537-0.984,0.51-0.83c-0.749-0.928-2.885,0.529-3.734-0.336l0.249-0.348l-0.575,0.549
		c0.114-0.195,0.178-0.287,0.237-0.369c0.135-0.797-0.761,0.15-0.906-0.152c0.111-0.188,0.367-0.539,0.459-0.77
		c-0.802,0.949,0.524-1.525-0.861,0.604c0.053-0.107,0.338-0.602,0.461-0.768c-0.927,0.443-1.422,0.107-1.708-0.525
		c-1.614,1.688-0.961-0.381-2.354,0.879l0.249-0.387c-1.411,0.986-1.066-0.844-1.802-0.949c-0.132-0.313-0.589,0.031-0.843-0.104
		l0.311-0.477c-1.614,1.529,0.266-2.172-1.493-0.475l0.468-0.621c-0.746,0.949-0.009-0.514-1.155,1.193l0.283-0.561
		c-1.838,2.041,0.203-1.373-1.155-0.16l0.304-0.385c-0.311,0.25-0.591,0.424-0.4,0.01c0.05-0.051,0.128-0.172,0.224-0.26
		c0.835-1.77-0.722-0.242-0.987-0.51l0.569-0.713c-0.779,0.771-0.45-0.229-0.918,0.02l0.263-0.334l-0.448,0.414l0.507-0.697
		C301.366,372.557,300.702,372.98,300.409,372.879z"/>
	<path fill="#FFFFFF" d="M297.409,371.762c-0.005,0.008-0.007,0.008-0.016,0.021C297.447,371.732,297.438,371.736,297.409,371.762z"
		/>
	<path fill="#FFFFFF" d="M325.134,383.258c-0.012,0.057-0.022,0.109-0.036,0.178C325.166,383.271,325.13,383.299,325.134,383.258z"
		/>
</g>
<g>
	<polygon fill="#FFFFFF" points="358.532,400.613 358.653,400.883 359.096,400.178 	"/>
	<path fill="#FFFFFF" d="M361.128,399.139c-0.062-0.135-0.011-0.354-0.075-0.49l-1.607,1.988
		C360.005,401.85,360.77,398.328,361.128,399.139z"/>
	<path fill="#FFFFFF" d="M361.535,399.375c0.527,0.516,0.822-0.447,0.971-0.768C362.264,399.352,361.487,398.314,361.535,399.375z"
		/>
	<path fill="#FFFFFF" d="M409.783,392.348c-0.048,0.023-0.103,0.074-0.142,0.121C409.733,392.467,409.776,392.418,409.783,392.348z"
		/>
	<path fill="#FFFFFF" d="M420.14,384.432l-0.222-0.762c-0.733,1.135-1.85,1.68-3.01,2.135c-1.165,0.455-2.452,0.645-3.472,1.385
		l0.053-0.313c-2.971,0.906-5.595,2.387-8.36,3.543c-2.763,1.154-5.521,2.424-8.458,3.555c0.075-0.107,0.055-0.34,0.13-0.455
		c-0.224,0.355-0.447,0.877-0.792,0.881c-0.126-0.152,0.014-0.369,0.1-0.465c-1.56-1.02-3.631,1.508-4.638,0.686
		c-0.338,0.199-0.401,0.762-0.125,1.123c-4.75,1.422-9.978,1.934-14.958,3.457c-0.251-0.15-0.313-0.498-0.27-0.947
		c-4.213,2.16-8.874,1.537-13.25,0.813c-0.2,0.539,0.421,0.607-0.05,1.15c1.411,0.77,2.684-1.193,3.941-0.121l-0.181,0.521
		c0.941,0.379,0.224-1.297,1.19-0.621c0.379,0.438-0.11,0.676,0.07,0.713c2.017-0.244,4.147,0.203,6.002-1.113
		c0.509,1.131,2.157,0.051,2.954,1.031c0.496-0.504,1.023-0.436,1.17-1.215c1.758-0.012,3.523-0.133,5.286-0.32
		c1.763-0.191,3.535-0.377,5.267-0.863c1.735-0.42,3.476-0.842,5.22-1.266c1.738-0.424,3.503-0.727,5.219-1.258
		c1.343-1.533,3.107-1.916,5.032-2.154c1.921-0.229,4.008-0.291,5.721-1.42c0.053,0.064,0.075,0.146,0.073,0.217
		c1.03-0.982,2.684-1.891,4.225-2.186l0.861-1.338c2.368-0.293,4.54-1.141,6.709-2.023c2.155-0.91,4.323-1.85,6.383-2.986
		l6.026-3.711l3.049-1.807c0.971-0.672,1.952-1.324,2.957-1.949c2.256-1.482,4.441-2.92,6.588-4.328
		c2.017-1.582,3.994-3.162,5.895-4.822c0.943-0.834,1.887-1.67,2.77-2.566c0.825-0.955,1.619-1.939,2.383-2.963
		c1.504-2.061,2.966-4.189,4.053-6.656c0.158,0.148,0.302,0.156,0.208,0.426c1.473-2.666,3.771-4.357,5.113-6.891l0.173,0.131
		c1.348-3.348,3.163-6.477,5.175-9.479c1.866-3.076,3.403-6.348,4.076-9.727c0.967-1.795,1.675-3.781,2.517-5.752
		c0.754-2.006,1.74-3.971,2.259-6.117c1.201-4.232,2.46-8.508,2.943-12.799l0.43,0.117c0.14-1.732,0.473-3.398,0.911-5.045
		c0.324-1.662,0.703-3.315,1.119-4.969c0.408-1.657,0.824-3.322,1.15-5.008c0.181-1.696,0.272-3.416,0.172-5.15
		c0.322-1.766,0.391-3.576,0.271-5.391c-0.246-1.815-0.633-3.633-1.005-5.438c-0.404-1.802-0.674-3.601-1.007-5.378
		c-0.361-1.774-0.564-3.545-0.464-5.352c0.393-1.163,0.352-2.367,0.096-3.568c-0.244-1.204-0.904-2.37-1.447-3.536
		c-1.145-2.328-2.252-4.55-1.612-6.844c0.826-9.049-4.031-16.609-9.865-22.963c-0.655-1.838-1.379-3.664-2.517-5.24
		c-1.103-1.597-2.3-3.127-3.45-4.663c-0.578-0.767-1.145-1.538-1.684-2.321c-0.553-0.774-1.178-1.495-1.71-2.279
		c-1.087-1.55-2.013-3.208-2.675-5.092c-1.644-0.966-2.523-2.64-3.373-4.476c-0.831-1.842-1.63-3.854-3.153-5.181l-0.294,0.487
		c0.237-2.286-3.896-0.597-2.825-2.976l0.188,0.023c0.294-1.433-3.318,0.949-2.636-0.443l-0.51,0.371
		c-0.787-0.484,0.396-0.588,0.044-1.248c-0.247-0.124-0.831,0.765-0.998,0.129c1.597-1.966-2.003-1.099-0.185-3.283
		c0.377,0.345,0.13-1.376,1.367-1.046c-0.052-0.443-1.309-1.406-1.979-0.387c-0.932,0.894-2.099,1.351-2.039,2.72l0.739-0.584
		c-0.374,0.921-0.127,0.516-0.5,1.123c0.807,0.909,0.032,2.038,0.283,3.031c0.012-0.026,0.023-0.05,0.064-0.078
		c1.171-0.439,1.324,0.603,1.555,1.03l-0.217,0.507c-0.537,0.98,2.439-0.641,0.902,0.477c1.039,0.648,2.082,1.436,3.087,2.313
		c0.935,0.945,1.856,1.955,2.774,2.943c0.774-0.202,1.348,1.571,1.957,0.217c-0.687,1.551,0.359,3.277,0.907,3.785
		c-0.13,0.074-0.278,0.159-0.311,0.036c-0.564,2.338,2.576,0.074,1.479,2.718c1.486-0.92,1.03,2.278,3.112,1.632
		c-0.205,0.369-0.449,0.624-0.732,0.764c1.406,1.975,2.631,4.372,3.556,6.193c2.21,0.648,1.646,3.921,4.252,4.098
		c0.139,0.646,0.301,1.498,0.603,2.333c0.251,0.865,0.667,1.699,1.437,2.274l-0.304-0.028c1.003,1.69,2.213,3.811,4.033,4.454
		c-1.569,1.39-0.776,1.947-1.078,3.01c1.345,0.828,2.09,3.382,3.643,4.931c-0.754,0.616,0.998,1.397-0.233,1.964
		c2.197,2.167,3.462,5.128,4.316,8.226c0.727,3.137,0.603,6.531,0.322,9.609L480,258.286c0.889,0.612,2.745,1.192,3.761,1.843
		c-0.107,0.099-0.328,0.127-0.345-0.042c0.396,1.071-0.785,2.307-0.395,3.362c-0.224,0.021-0.224,0.021-0.459-0.125
		c0.732,0.951-0.795,2.253,0.404,3.334l-0.348,0.108l0.601,0.714c-0.445,0.028-1.119,0.069-1.027-0.354
		c0.29,2.334,0.363,4.698,0.63,7.073l0.438,3.581l0.244,1.803l0.099,1.813c0.135,2.421,0.274,4.867,0.331,7.324
		c-0.009,2.448-0.354,4.883-0.719,7.299l-0.375-0.416l0.507,1.996c-0.222-0.046-0.319-0.153-0.406-0.258
		c-0.957,2.279-0.459,4.912-1.089,7.203c-0.208-0.059-0.556-0.5-0.868-0.23c0.819,1.982-2.131,2.334,0.144,3.803
		c-0.132,0.049-0.696-0.039-0.856-0.264c-0.173,2.445-0.813,4.828-1.471,7.203c-0.36,1.176-0.691,2.365-1.169,3.5
		c-0.512,1.121-1.051,2.229-1.605,3.32c0.276,2.301-0.434,4.383-1.354,6.365c-1.01,1.953-2.069,3.877-2.245,6.213l-0.393-0.234
		c-0.464,2.9-2.122,5.283-3.81,7.637l-2.58,3.498c-0.904,1.135-1.853,2.23-2.646,3.43c-1.597,1.783-2.143,3.402-3.588,5.334
		l-0.478-0.318c-0.532,2.188-2.356,3.461-4.136,4.725c-1.795,1.266-3.476,2.588-4.266,4.803l-0.324-0.754
		c0.35,1.309-2.17,1.402-0.58,2.738l-0.978,0.047c-0.146,1.971-1.348,2.641-2.66,3.248c-0.66,0.301-1.334,0.611-1.969,1.037
		c-0.662,0.393-1.254,0.939-1.688,1.816l-0.119-0.521c-0.511,0.859-1.21,1.758-2.036,1.82c0.043-0.125-0.085-0.207,0.016-0.443
		c-3.503,0.174-4.738,3.971-7.522,5.439l-0.194-0.951c-0.698,1.682-3.556,2.266-4.974,3.709l-0.109-0.434l-0.548,1.043l-0.443-0.736
		C424.184,381.598,422.322,383.205,420.14,384.432z"/>
	<path fill="#FFFFFF" d="M396.108,393.936c0.01,0.006,0.021,0.004,0.035,0.02C396.202,393.869,396.166,393.885,396.108,393.936z"/>
	<path fill="#FFFFFF" d="M445.095,195.282c-0.05-0.115-0.084-0.219-0.107-0.337C444.89,195.091,445.049,195.188,445.095,195.282z"/>
</g>
<g>
	<polygon fill="#FFFFFF" points="407.689,163.847 407.637,163.558 407.07,164.152 	"/>
	<path fill="#FFFFFF" d="M404.956,164.746c0.027,0.145-0.068,0.346-0.041,0.494l1.934-1.606
		C406.604,162.336,405.106,165.609,404.956,164.746z"/>
	<path fill="#FFFFFF" d="M404.632,164.435c-0.37-0.613-0.859,0.264-1.069,0.548C403.953,164.307,404.439,165.476,404.632,164.435z"
		/>
	<path fill="#FFFFFF" d="M358.614,160.331c0.048-0.01,0.109-0.044,0.157-0.08C358.685,160.229,358.635,160.265,358.614,160.331z"/>
	<path fill="#FFFFFF" d="M347.273,165.283l0.03,0.787c1.902-1.728,4.592-0.747,6.777-1.728l-0.118,0.297
		c2.937-0.162,5.704-0.757,8.501-1.301c2.8-0.413,5.62-1.196,8.578-1.342c-0.094,0.083-0.126,0.311-0.222,0.4
		c0.285-0.265,0.607-0.756,0.927-0.682c0.082,0.175-0.094,0.36-0.198,0.436c1.21,1.315,3.686-0.733,4.428,0.277
		c0.356-0.132,0.541-0.653,0.367-1.073c2.327,0.031,4.741,0.096,7.187,0.077c2.435,0.088,4.892,0.171,7.354,0.021
		c0.196,0.208,0.176,0.557,0.037,0.987c4.38-1.24,8.522,0.435,12.409,2.02c0.308-0.484-0.251-0.678,0.306-1.112
		c-1.131-1.039-2.747,0.61-3.672-0.693l0.283-0.469c-0.781-0.574-0.503,1.238-1.231,0.333c-0.253-0.508,0.252-0.635,0.094-0.71
		c-1.916-0.192-3.781-1.083-5.786-0.197c-0.215-1.22-1.984-0.485-2.496-1.64c-0.566,0.374-1.037,0.185-1.348,0.909
		c-1.617-0.397-3.268-0.688-4.933-0.919c-1.669-0.187-3.363-0.211-5.052-0.273c-3.379-0.195-6.779,0.143-10.169-0.016
		c-1.577,1.118-3.288,1.12-5.112,0.888c-0.909-0.109-1.843-0.265-2.786-0.335c-0.937-0.029-1.88,0.054-2.795,0.332
		c-0.034-0.075-0.037-0.16-0.019-0.227c-1.172,0.673-2.902,1.112-4.39,0.991c0,0-0.278,0.252-0.548,0.544
		c-0.27,0.283-0.541,0.566-0.541,0.566c-8.993-0.729-17.483,2.943-26.038,5.357c-9.596,3.103-18.604,6.116-25.097,14.172
		c-0.112-0.185-0.247-0.236-0.091-0.459c-2.048,2.021-4.686,2.829-6.436,4.956l-0.13-0.176c-1.002,1.412-2.172,2.644-3.428,3.793
		c-1.188,1.226-2.453,2.38-3.715,3.53c-2.599,2.217-4.793,4.846-6.246,7.793c-1.393,1.342-2.628,2.904-3.882,4.501
		c-1.24,1.606-2.567,3.199-3.731,4.922c-2.218,3.528-4.554,7.044-6.184,10.792l-0.377-0.236c-0.598,1.536-1.37,2.947-2.224,4.314
		c-0.751,1.419-1.596,2.788-2.45,4.161c-0.829,1.386-1.777,2.729-2.446,4.202c-0.674,1.472-1.268,2.99-1.683,4.581
		c-1.781,2.942-2.003,6.546-2.455,9.983c-0.395,3.472-0.416,6.948-1.84,10.093c-1.361,1.874-1.092,4.396-0.818,6.808
		c0.188,2.417,0.815,4.774-0.491,6.638c-2.094,3.892-2.174,7.97-1.822,11.948c0.276,1.988,0.84,3.956,1.418,5.901l0.936,2.9
		c0.37,0.959,0.795,1.904,1.192,2.853c-0.021,1.854,0.228,3.683,0.589,5.478c0.452,1.779,1.085,3.512,1.638,5.246
		c1.005,3.506,2.389,6.793,2.233,10.602c1.192,1.377,1.502,3.127,1.553,5.078c0.119,1.916,0.002,4.037,1.062,5.654l0.438-0.346
		c-0.893,1.922,3.453,1.723,1.607,3.539l-0.165-0.082c-0.797,1.211,3.385,0.186,2.247,1.234l0.601-0.176
		c0.544,0.686-0.578,0.408-0.498,1.121c0.18,0.188,1.042-0.436,0.959,0.195c-2.183,1.283,1.425,1.629-1.041,3.043
		c-0.215-0.436-0.624,1.209-1.633,0.52c-0.117,0.42,0.678,1.689,1.667,0.975c1.181-0.52,2.416-0.568,2.863-1.83l-0.893,0.299
		c0.683-0.723,0.308-0.43,0.87-0.863c-0.4-1.08,0.722-1.863,0.861-2.846c-0.021,0.021-0.041,0.041-0.089,0.051
		c-1.23,0.031-0.989-0.965-1.039-1.426l0.383-0.391c0.854-0.723-2.466-0.188-0.646-0.717c-0.717-0.916-1.366-1.967-1.98-3.066
		c-0.637-1.092-1.19-2.262-1.63-3.463c-0.784-0.061-0.658-1.848-1.715-0.813c1.201-1.188,0.877-3.082,0.564-3.713
		c0.144-0.027,0.311-0.057,0.297,0.064c1.42-1.955-2.397-0.855-0.447-2.895c-1.708,0.369-0.151-2.369-2.316-2.434
		c0.325-0.268,0.642-0.422,0.955-0.459c-0.635-2.207-0.845-4.768-1.121-6.678c-1.856-1.26-0.217-4.023-2.605-4.982
		c0.15-1.246,0.811-3.284-0.302-4.773l0.281,0.119c-0.373-1.823-0.943-4.079-2.311-5.229c1.966-0.768,1.5-1.521,2.08-2.378
		c-1.012-1.153-0.989-3.664-1.92-5.526c0.93-0.324-0.404-1.562,0.95-1.694c-2.745-5.249-1.56-12.117,1.217-17.41l0.084,0.094
		c-0.635-0.817-2.142-1.893-2.982-2.797c0.128-0.057,0.35-0.015,0.32,0.144c-0.101-1.09,1.35-1.849,1.251-2.925
		c0.219,0.048,0.219,0.048,0.407,0.254c-0.425-1.079,1.482-1.772,0.692-3.104l0.363,0.009l-0.333-0.819
		c0.432,0.11,1.085,0.278,0.859,0.628c0.635-2.138,0.877-4.384,1.445-6.57c0.498-2.204,0.916-4.454,1.336-6.729
		c0.587-2.219,1.179-4.46,1.848-6.686c0.605-2.253,1.685-4.32,2.692-6.402l0.24,0.49l0.078-1.958
		c0.199,0.109,0.26,0.234,0.315,0.357c1.569-1.759,1.747-4.337,2.985-6.219c0.183,0.117,0.395,0.625,0.761,0.477
		c-0.242-2.055,2.656-1.475,0.893-3.506c0.139-0.006,0.651,0.248,0.742,0.5c1.811-4.246,4.4-8.268,7.705-11.542
		c0.519-4.585,5.145-6.32,6.547-10.55l0.313,0.334c1.238-2.46,3.336-4.238,5.435-5.991c2.174-1.68,4.577-3.089,6.568-4.957
		c1.918-1.203,2.864-2.495,4.7-3.854l0.37,0.437c0.913-2.054,2.959-2.663,4.914-3.345c1.969-0.687,3.892-1.375,5.106-3.311
		l0.13,0.81c-0.027-1.346,2.322-0.752,1.158-2.463l0.913,0.221c1.183-3.786,5.003-1.015,7.292-4.009l-0.01,0.539
		c0.662-0.705,1.487-1.441,2.284-1.229c-0.071,0.1,0.027,0.218-0.121,0.41c3.313,0.88,5.359-2.337,8.234-3.092l-0.039,0.962
		c1.028-1.425,3.8-1.224,5.439-2.23l0.003,0.445c0,0,0.756-0.812,0.756-0.813l0.239,0.829
		C342.946,167.149,344.979,165.875,347.273,165.283z"/>
	<path fill="#FFFFFF" d="M371.549,162.151c-0.007-0.009-0.017-0.009-0.025-0.028C371.45,162.197,371.484,162.188,371.549,162.151z"
		/>
	<path fill="#FFFFFF" d="M270.083,332.264c0.002,0.119-0.004,0.225-0.025,0.338C270.202,332.502,270.089,332.363,270.083,332.264z"
		/>
</g>
<g>
</g>
<g>
</g>
<g>
</g>
<g>
</g>
<g>
</g>
<g>
</g>
</svg>
