<?xml version="1.0" encoding="utf-8"?>
<!-- Generator: Adobe Illustrator 16.0.0, SVG Export Plug-In . SVG Version: 6.00 Build 0)  -->
<!DOCTYPE svg PUBLIC "-//W3C//DTD SVG 1.1//EN" "http://www.w3.org/Graphics/SVG/1.1/DTD/svg11.dtd">
<svg version="1.1" id="Calque_1" xmlns="http://www.w3.org/2000/svg" xmlns:xlink="http://www.w3.org/1999/xlink" x="0px" y="0px"
	 width="841.89px" height="595.28px" viewBox="0 0 841.89 595.28" enable-background="new 0 0 841.89 595.28" xml:space="preserve">
<g>
	<g>
		<path fill-rule="evenodd" clip-rule="evenodd" d="M477.178,114.837c2.88,0,5.76,0,8.64,0c0.254,0.073,0.504,0.193,0.762,0.213
			c4.721,0.381,9.325,1.332,13.822,2.804c11.515,3.769,21.255,10.387,29.898,18.73c1.507,1.454,2.83,3.097,4.237,4.653
			c0,0.24,0,0.48,0,0.72c-0.513,0.643-0.94,1.386-1.553,1.914c-11.312,9.752-24.104,16.724-38.646,20.314
			c-7.501,1.852-15.112,2.562-22.824,1.667c-9.542-1.106-18.144-4.7-25.906-10.226c-5.496-3.912-10.766-8.145-16.109-12.27
			c-1.127-0.87-2.138-1.89-3.201-2.841c0-0.48,0-0.96,0-1.44c0.611-0.621,1.159-1.327,1.846-1.849
			c2.414-1.836,4.923-3.551,7.312-5.419c10.6-8.291,22.383-13.936,35.733-16.108C473.179,115.376,475.181,115.123,477.178,114.837z
			 M499.058,140.656c0.011-11.5-9.218-20.796-20.667-20.819c-11.391-0.022-20.718,9.154-20.937,20.21
			c-0.228,11.521,8.945,21.265,20.391,21.336C489.761,161.458,499.047,152.333,499.058,140.656z"/>
		<path fill-rule="evenodd" clip-rule="evenodd" fill="#FFFFFF" d="M426.298,140.517c1.063,0.951,2.074,1.971,3.201,2.841
			c5.344,4.125,10.613,8.357,16.109,12.27c7.763,5.525,16.364,9.119,25.906,10.226c7.712,0.894,15.323,0.185,22.824-1.667
			c14.542-3.591,27.334-10.562,38.646-20.314c0.612-0.528,1.04-1.271,1.553-1.914c0,8.16,0,16.32,0,24.48
			c-36.079,0-72.159,0-108.239,0C426.298,157.797,426.298,149.157,426.298,140.517z"/>
		<path fill-rule="evenodd" clip-rule="evenodd" fill="#FFFFFF" d="M534.537,141.237c-1.407-1.556-2.73-3.199-4.237-4.653
			c-8.644-8.343-18.384-14.961-29.898-18.73c-4.497-1.472-9.102-2.423-13.822-2.804c-0.258-0.021-0.508-0.14-0.762-0.213
			c16.24,0,32.48,0,48.72,0C534.537,123.637,534.537,132.437,534.537,141.237z"/>
		<path fill-rule="evenodd" clip-rule="evenodd" fill="#FFFFFF" d="M477.178,114.837c-1.997,0.286-3.999,0.539-5.989,0.863
			c-13.351,2.172-25.134,7.817-35.733,16.108c-2.389,1.868-4.897,3.583-7.312,5.419c-0.687,0.522-1.234,1.228-1.846,1.849
			c0-8.067,0-16.134,0-24.24C443.258,114.837,460.218,114.837,477.178,114.837z"/>
		<path fill-rule="evenodd" clip-rule="evenodd" fill="#FFFFFF" d="M499.058,140.656c-0.011,11.677-9.297,20.802-21.213,20.728
			c-11.445-0.071-20.618-9.816-20.391-21.336c0.219-11.056,9.546-20.233,20.937-20.21
			C489.84,119.859,499.068,129.156,499.058,140.656z M478.297,127.276c-7.468-0.009-13.409,5.922-13.398,13.374
			c0.011,7.375,5.961,13.326,13.339,13.34c7.446,0.015,13.387-5.934,13.381-13.396C491.611,133.18,485.715,127.285,478.297,127.276z
			"/>
		<path fill-rule="evenodd" clip-rule="evenodd" d="M478.297,127.276c7.418,0.009,13.314,5.904,13.321,13.317
			c0.006,7.462-5.935,13.411-13.381,13.396c-7.378-0.014-13.328-5.965-13.339-13.34
			C464.888,133.198,470.829,127.268,478.297,127.276z"/>
	</g>
</g>
</svg>
